<?xml version="1.0" encoding="UTF-8" standalone="no"?>
<svg
   id="Capa_2"
   viewBox="0 0 521.55 195.52"
   version="1.1"
   sodipodi:docname="trc_azul_degradado.svg"
   inkscape:version="1.2.2 (732a01da63, 2022-12-09)"
   xmlns:inkscape="http://www.inkscape.org/namespaces/inkscape"
   xmlns:sodipodi="http://sodipodi.sourceforge.net/DTD/sodipodi-0.dtd"
   xmlns="http://www.w3.org/2000/svg"
   xmlns:svg="http://www.w3.org/2000/svg">
  <sodipodi:namedview
     id="namedview6449"
     pagecolor="#ffffff"
     bordercolor="#000000"
     borderopacity="0.25"
     inkscape:showpageshadow="2"
     inkscape:pageopacity="0.0"
     inkscape:pagecheckerboard="0"
     inkscape:deskcolor="#d1d1d1"
     showgrid="false"
     inkscape:zoom="6.127888"
     inkscape:cx="260.775"
     inkscape:cy="97.749828"
     inkscape:window-width="3840"
     inkscape:window-height="2066"
     inkscape:window-x="-11"
     inkscape:window-y="-11"
     inkscape:window-maximized="1"
     inkscape:current-layer="Capa_2" />
  <defs
     id="defs6437">
    <style
       id="style6416">.cls-1{fill:url(#Degradado_sin_nombre_5);}.cls-1,.cls-2{stroke-width:0px;}.cls-2{fill:#181756;}</style>
    <linearGradient
       id="Degradado_sin_nombre_5"
       x1="177.66"
       y1="127.91"
       x2="663.14"
       y2="130.7"
       gradientUnits="userSpaceOnUse">
      <stop
         offset="0"
         stop-color="#019fe6"
         id="stop6418" />
      <stop
         offset=".24"
         stop-color="#0ef4e9"
         id="stop6420" />
      <stop
         offset=".36"
         stop-color="#0df1e8"
         id="stop6422" />
      <stop
         offset=".44"
         stop-color="#0ce7e6"
         id="stop6424" />
      <stop
         offset=".51"
         stop-color="#0ad7e3"
         id="stop6426" />
      <stop
         offset=".58"
         stop-color="#07c0de"
         id="stop6428" />
      <stop
         offset=".64"
         stop-color="#03a3d8"
         id="stop6430" />
      <stop
         offset=".69"
         stop-color="#008bd4"
         id="stop6432" />
      <stop
         offset=".98"
         stop-color="#fd78d0"
         id="stop6434" />
    </linearGradient>
  </defs>
  <g
     id="TRC_Positivo_Degradado">
    <path
       class="cls-2"
       d="m142.15,54.28v-19.5h-29.27v160.75h30.5v-93.94c0-25.32,25.32-39.97,51.55-36v-30.8c-21.66-1.83-44.54,4.25-52.78,19.5"
       id="path6439" />
    <path
       class="cls-2"
       d="m30.52,125.67v-61.61h39.04v-30.5H30.52V0H0v132.7c0,54.9,47.91,62.82,79.31,62.82v-30.5c-21.64,0-48.79-2.74-48.79-39.35"
       id="path6441" />
    <path
       class="cls-2"
       d="m241.7,176.19c1.73,1.67,3.54,3.26,5.43,4.72l.05.05c4.2,3.24,8.77,5.98,13.68,8.15,7.79,3.49,16.39,5.55,25.5,6.14,3.43.23,6.94.25,10.52.04,9.73-.55,19.43-2.79,28.28-6.39.25-.09.5-.2.73-.3,9.88-4.09,17.49-10.02,24.84-17.01,1.13-1.07,2.25-2.16,3.37-3.29,2.63-2.64,4.34-6.17,4.38-9.9,0-.06,0-.13,0-.2,0-8.62-7.59-15.83-16.2-15.43-.07,0-.14,0-.2.01-3.73.22-7.18,2.02-9.8,4.68l-1.43,1.45s-.02.02-.04.02c-.14.14-.3.27-.44.41-10.25,9.31-21.71,16.6-36.68,16.6-4.72,0-9.31-.64-13.65-1.85-.07,0-.12-.02-.2-.04-3.86-.96-7.58-2.42-11-4.52-3.91-2.14-7.53-4.79-10.78-7.85,0,0,0,0,0,0-10.44-9.81-17.03-23.84-17.03-39.29,0-33.7,27.23-53.24,52.66-53.24,11.2,0,25.8,4.42,36.08,15.44,5.13,5.5,13.83,6.38,19.76,1.75,6.76-5.28,7.49-14.99,1.95-21.26-13.61-15.43-35.48-25.5-58.68-25.5-41.11,0-81.34,32.83-81.34,82.82,0,28.28,14.25,53.47,35.66,68.51-1.89-1.46-3.7-3.04-5.43-4.72"
       id="path6443" />
    <path
       class="cls-1"
       d="m498.91,84.95c-14.16-13.79-32.76-21.3-52.53-21.3-.25,0-.51,0-.76,0-20.04.27-38.76,8.29-52.76,22.64-3.56,3.65-7.12,7.31-10.67,10.96-3.38,3.45-6.75,6.92-10.11,10.37-2.86,2.93-3.85,3.95-6.02,6.18-.68.58-1.31,1.22-1.87,1.91-.06.06-.12.12-.2.21-8.84,9.16.43,24.39,11.9,24.39,7.76,0,12.16-6.1,17.08-11.16,7.14-7.31,14.25-14.63,21.39-21.94,8.38-8.61,19.63-13.42,31.66-13.58h.27c9.02,0,17.93,2.5,25.38,7.6,12.56,8.59,19.73,22.14,19.93,36.84.14,12.03-4.38,23.38-12.79,32-5.77,5.93-5.66,15.41.27,21.19,2.96,2.87,6.78,4.29,10.57,4.25,3.88-.02,7.73-1.53,10.64-4.52,13.99-14.34,21.55-33.28,21.3-53.3-.25-20.04-8.29-38.76-22.64-52.75Z"
       id="path6445" />
  </g>
</svg>
