<?xml version="1.0" encoding="UTF-8" standalone="no"?>
<!-- Generator: Adobe Illustrator 23.0.1, SVG Export Plug-In . SVG Version: 6.00 Build 0)  -->

<svg
   version="1.1"
   id="Layer_1"
   x="0px"
   y="0px"
   viewBox="0 0 870 287"
   xml:space="preserve"
   sodipodi:docname="fireDectecionLogo.svg"
   inkscape:version="1.2.2 (732a01da63, 2022-12-09)"
   width="870"
   height="287"
   xmlns:inkscape="http://www.inkscape.org/namespaces/inkscape"
   xmlns:sodipodi="http://sodipodi.sourceforge.net/DTD/sodipodi-0.dtd"
   xmlns="http://www.w3.org/2000/svg"
   xmlns:svg="http://www.w3.org/2000/svg"><defs
   id="defs230"><rect
     x="370.02487"
     y="100.10335"
     width="442.42105"
     height="146.87782"
     id="rect965" /></defs><sodipodi:namedview
   id="namedview228"
   pagecolor="#ffffff"
   bordercolor="#666666"
   borderopacity="1.0"
   inkscape:showpageshadow="2"
   inkscape:pageopacity="0.0"
   inkscape:pagecheckerboard="0"
   inkscape:deskcolor="#d1d1d1"
   showgrid="false"
   inkscape:zoom="2.7337867"
   inkscape:cx="479.37171"
   inkscape:cy="173.02008"
   inkscape:window-width="3840"
   inkscape:window-height="2066"
   inkscape:window-x="-11"
   inkscape:window-y="-11"
   inkscape:window-maximized="1"
   inkscape:current-layer="Layer_1" />

<path
   d="m 119.30622,77.29187 c 2.08928,-1.95536 5.33036,-1.92857 7.41965,0.0268 7.39288,6.93752 14.3304,14.41075 20.81256,22.50005 2.94643,-3.85715 6.29465,-8.06252 9.91073,-11.49109 2.11608,-1.98215 5.38395,-1.98215 7.50002,0.0268 9.26789,8.83932 17.11612,20.51791 22.634,31.60723 5.43751,10.9286 9.05359,22.09828 9.05359,29.9733 0,34.17865 -26.73221,63.05374 -60.00016,63.05374 -33.64294,0 -60.00016,-28.90187 -60.00016,-63.08052 0,-10.28575 4.76788,-22.84828 12.16075,-35.27689 7.47323,-12.6161 18.02683,-25.76793 30.50902,-37.33939 z m 17.78575,109.98244 c 6.77679,0 12.77682,-1.875 18.42861,-5.62502 11.27682,-7.87501 14.30361,-23.62506 7.52681,-36.00009 -1.20535,-2.41072 -4.28571,-2.57144 -6.02679,-0.53572 l -6.75003,7.84823 c -1.76786,2.03573 -4.95537,1.98216 -6.61609,-0.13393 -4.41965,-5.62501 -12.32145,-15.66968 -16.82146,-21.37504 -1.68751,-2.14286 -4.90181,-2.16966 -6.61609,-0.0268 -9.0536,11.38395 -13.60718,18.56255 -13.60718,26.62508 0.0267,18.34826 13.58039,29.22328 30.48222,29.22328 z"
   id="path348"
   style="fill:#ab0000;fill-opacity:1;stroke-width:0.267859" /><text
   xml:space="preserve"
   id="text963"
   style="font-style:normal;font-weight:normal;font-size:40px;line-height:1.25;font-family:sans-serif;white-space:pre;shape-inside:url(#rect965);display:inline;fill:#000000;fill-opacity:1;stroke:none" /><text
   xml:space="preserve"
   style="font-style:normal;font-variant:normal;font-weight:bold;font-stretch:normal;font-size:96px;line-height:1.25;font-family:Nunito;-inkscape-font-specification:'Nunito Bold';letter-spacing:0px;word-spacing:0px;fill:#000000;fill-opacity:1;stroke:none"
   x="231.89539"
   y="190.33366"
   id="text971"><tspan
     sodipodi:role="line"
     id="tspan969"
     x="231.89539"
     y="190.33366"
     style="font-style:normal;font-variant:normal;font-weight:bold;font-stretch:normal;font-size:96px;font-family:Nunito;-inkscape-font-specification:'Nunito Bold'"
     rotate="0 0 0 0 0 0 0 0 0 0 0 0 0 0"
     dx="0 2 -2"><tspan
   style="letter-spacing:2px"
   id="tspan346">fi</tspan>reDete<tspan
   style="letter-spacing:3px"
   id="tspan359">ct</tspan>ion</tspan></text></svg>
